<svg width="330.18" height="50.121" viewBox="0 0 321.18 45.121" xmlns="http://www.w3.org/2000/svg">
    <g id="svgGroup" stroke-linecap="round" fill-rule="evenodd" font-size="9pt" stroke="#000000"
        stroke-width="0.25mm" fill="#000000" style="stroke:#000000;stroke-width:0.25mm;fill:#000000">
        <path
            d="M 210.66 44.4 L 203.58 44.4 L 192.18 3.78 L 197.82 1.98 L 207.3 38.34 L 216.24 6.78 L 223.38 6.78 L 232.26 38.34 L 241.68 2.16 L 246.96 3.78 L 235.62 44.4 L 228.54 44.4 L 219.66 12.84 L 210.66 44.4 Z M 264.96 41.88 L 267.24 37.38 A 11.134 11.134 0 0 0 269.126 38.655 Q 270.052 39.158 271.153 39.564 A 18.252 18.252 0 0 0 271.17 39.57 A 14.444 14.444 0 0 0 275.737 40.432 A 16.479 16.479 0 0 0 276.24 40.44 A 16.268 16.268 0 0 0 278.09 40.342 Q 280.108 40.11 281.31 39.33 Q 283.02 38.22 283.02 36.48 A 4.274 4.274 0 0 0 282.832 35.192 A 3.727 3.727 0 0 0 282.39 34.26 A 3.831 3.831 0 0 0 281.833 33.604 Q 281.224 33.02 280.22 32.449 A 13.382 13.382 0 0 0 280.08 32.37 A 17.077 17.077 0 0 0 278.884 31.774 Q 277.614 31.197 275.821 30.567 A 62.159 62.159 0 0 0 275.22 30.36 A 27.97 27.97 0 0 1 272.581 29.314 Q 271.313 28.73 270.307 28.077 A 11.601 11.601 0 0 1 268.65 26.79 A 6.795 6.795 0 0 1 266.674 23.192 A 10.076 10.076 0 0 1 266.46 21.06 A 7.272 7.272 0 0 1 268.829 15.651 A 10.478 10.478 0 0 1 269.61 14.97 A 10.659 10.659 0 0 1 273.232 13.142 Q 275.463 12.48 278.34 12.48 A 24.476 24.476 0 0 1 281.007 12.618 Q 282.392 12.77 283.602 13.089 A 15.141 15.141 0 0 1 283.68 13.11 A 23.262 23.262 0 0 1 286.161 13.923 A 18.666 18.666 0 0 1 287.88 14.7 L 286.38 19.14 A 14.717 14.717 0 0 0 284.179 18.081 A 18.115 18.115 0 0 0 282.69 17.58 A 15.014 15.014 0 0 0 280 17.072 A 19.102 19.102 0 0 0 278.1 16.98 Q 274.98 16.98 273.36 18.24 Q 271.74 19.5 271.74 21 A 2.952 2.952 0 0 0 272.637 23.131 A 4.249 4.249 0 0 0 273 23.46 A 5.928 5.928 0 0 0 273.78 23.981 Q 275.144 24.762 277.799 25.64 A 50.675 50.675 0 0 0 277.92 25.68 A 40.652 40.652 0 0 1 280.957 26.819 Q 283.845 28.046 285.5 29.417 A 8.968 8.968 0 0 1 286.2 30.06 A 8.158 8.158 0 0 1 288.531 35.608 A 10.737 10.737 0 0 1 288.54 36.06 Q 288.54 40.26 285.15 42.69 Q 281.76 45.12 276.06 45.12 A 23.994 23.994 0 0 1 272.543 44.873 A 18.569 18.569 0 0 1 269.67 44.22 Q 266.82 43.32 264.96 41.88 Z M 65.58 31.02 L 43.74 31.02 A 14.453 14.453 0 0 0 44.423 34.035 Q 45.137 36.072 46.465 37.515 A 8.988 8.988 0 0 0 46.8 37.86 A 8.486 8.486 0 0 0 51.375 40.146 A 12.013 12.013 0 0 0 53.46 40.32 Q 56.16 40.32 58.32 39.75 Q 60.48 39.18 62.46 38.28 L 63.72 42.9 A 24.462 24.462 0 0 1 61.119 43.876 A 31.118 31.118 0 0 1 58.86 44.49 A 23.349 23.349 0 0 1 55.805 44.982 A 31.215 31.215 0 0 1 52.8 45.12 A 16.991 16.991 0 0 1 48.152 44.517 A 12.665 12.665 0 0 1 42.15 40.83 A 14.113 14.113 0 0 1 39.027 35.106 Q 38.422 33.007 38.27 30.509 A 28.275 28.275 0 0 1 38.22 28.8 A 21.215 21.215 0 0 1 38.72 24.107 A 17.304 17.304 0 0 1 39.99 20.43 A 14.785 14.785 0 0 1 43 16.181 A 13.732 13.732 0 0 1 44.94 14.61 A 12.629 12.629 0 0 1 51.096 12.527 A 15.723 15.723 0 0 1 52.32 12.48 Q 56.392 12.48 59.211 14.076 A 10.328 10.328 0 0 1 59.79 14.43 Q 62.76 16.38 64.26 19.68 A 16.911 16.911 0 0 1 65.716 25.598 A 20.061 20.061 0 0 1 65.76 26.94 A 45.122 45.122 0 0 1 65.586 30.958 A 41.591 41.591 0 0 1 65.58 31.02 Z M 164.76 31.02 L 142.92 31.02 A 14.453 14.453 0 0 0 143.603 34.035 Q 144.317 36.072 145.645 37.515 A 8.988 8.988 0 0 0 145.98 37.86 A 8.486 8.486 0 0 0 150.555 40.146 A 12.013 12.013 0 0 0 152.64 40.32 Q 155.34 40.32 157.5 39.75 Q 159.66 39.18 161.64 38.28 L 162.9 42.9 A 24.462 24.462 0 0 1 160.299 43.876 A 31.118 31.118 0 0 1 158.04 44.49 A 23.349 23.349 0 0 1 154.985 44.982 A 31.215 31.215 0 0 1 151.98 45.12 A 16.991 16.991 0 0 1 147.332 44.517 A 12.665 12.665 0 0 1 141.33 40.83 A 14.113 14.113 0 0 1 138.207 35.106 Q 137.602 33.007 137.45 30.509 A 28.275 28.275 0 0 1 137.4 28.8 A 21.215 21.215 0 0 1 137.9 24.107 A 17.304 17.304 0 0 1 139.17 20.43 A 14.785 14.785 0 0 1 142.18 16.181 A 13.732 13.732 0 0 1 144.12 14.61 A 12.629 12.629 0 0 1 150.276 12.527 A 15.723 15.723 0 0 1 151.5 12.48 Q 155.572 12.48 158.391 14.076 A 10.328 10.328 0 0 1 158.97 14.43 Q 161.94 16.38 163.44 19.68 A 16.911 16.911 0 0 1 164.896 25.598 A 20.061 20.061 0 0 1 164.94 26.94 A 45.122 45.122 0 0 1 164.766 30.958 A 41.591 41.591 0 0 1 164.76 31.02 Z M 321 31.02 L 299.16 31.02 A 14.453 14.453 0 0 0 299.843 34.035 Q 300.557 36.072 301.885 37.515 A 8.988 8.988 0 0 0 302.22 37.86 A 8.486 8.486 0 0 0 306.795 40.146 A 12.013 12.013 0 0 0 308.88 40.32 Q 311.58 40.32 313.74 39.75 Q 315.9 39.18 317.88 38.28 L 319.14 42.9 A 24.462 24.462 0 0 1 316.539 43.876 A 31.118 31.118 0 0 1 314.28 44.49 A 23.349 23.349 0 0 1 311.225 44.982 A 31.215 31.215 0 0 1 308.22 45.12 A 16.991 16.991 0 0 1 303.572 44.517 A 12.665 12.665 0 0 1 297.57 40.83 A 14.113 14.113 0 0 1 294.447 35.106 Q 293.842 33.007 293.69 30.509 A 28.275 28.275 0 0 1 293.64 28.8 A 21.215 21.215 0 0 1 294.14 24.107 A 17.304 17.304 0 0 1 295.41 20.43 A 14.785 14.785 0 0 1 298.42 16.181 A 13.732 13.732 0 0 1 300.36 14.61 A 12.629 12.629 0 0 1 306.516 12.527 A 15.723 15.723 0 0 1 307.74 12.48 Q 311.812 12.48 314.631 14.076 A 10.328 10.328 0 0 1 315.21 14.43 Q 318.18 16.38 319.68 19.68 A 16.911 16.911 0 0 1 321.136 25.598 A 20.061 20.061 0 0 1 321.18 26.94 A 45.122 45.122 0 0 1 321.006 30.958 A 41.591 41.591 0 0 1 321 31.02 Z M 122.7 44.4 L 117.06 44.4 L 104.52 14.64 L 109.44 12.6 L 120.06 38.28 L 130.68 12.6 L 135.3 14.64 L 122.7 44.4 Z M 0 44.28 L 0 2.52 Q 2.82 2.22 5.52 2.07 A 90.786 90.786 0 0 1 8.032 1.967 Q 9.315 1.932 10.737 1.923 A 153.945 153.945 0 0 1 11.7 1.92 A 29.165 29.165 0 0 1 16.106 2.236 Q 18.804 2.648 21.03 3.6 A 18.587 18.587 0 0 1 25.403 6.192 A 16.334 16.334 0 0 1 27.51 8.22 Q 30.06 11.16 31.29 15.03 A 26.554 26.554 0 0 1 32.473 21.627 A 30.904 30.904 0 0 1 32.52 23.34 A 27.185 27.185 0 0 1 31.631 30.358 A 25.081 25.081 0 0 1 31.26 31.62 Q 30 35.52 27.39 38.49 A 17.381 17.381 0 0 1 22.437 42.36 A 21.154 21.154 0 0 1 20.73 43.17 Q 16.965 44.76 11.825 44.872 A 36.115 36.115 0 0 1 11.04 44.88 A 112.188 112.188 0 0 1 8.597 44.855 Q 7.389 44.828 6.313 44.774 A 60.901 60.901 0 0 1 5.07 44.7 Q 2.52 44.52 0 44.28 Z M 72.66 34.62 L 72.66 0 L 78.06 0 L 78.06 34.08 A 12.386 12.386 0 0 0 78.173 35.813 Q 78.294 36.669 78.546 37.364 A 4.784 4.784 0 0 0 79.41 38.88 A 4.418 4.418 0 0 0 82.16 40.365 A 6.434 6.434 0 0 0 83.16 40.44 Q 84.3 40.44 85.41 40.17 Q 86.36 39.939 87.068 39.642 A 7.166 7.166 0 0 0 87.3 39.54 L 88.62 43.92 A 10.89 10.89 0 0 1 87.658 44.29 Q 86.894 44.546 85.95 44.76 A 14.29 14.29 0 0 1 84.057 45.051 A 18.308 18.308 0 0 1 82.44 45.12 A 12.517 12.517 0 0 1 79.506 44.788 A 10.527 10.527 0 0 1 77.46 44.07 A 7.61 7.61 0 0 1 74.265 41.211 A 9.514 9.514 0 0 1 73.95 40.68 A 9.453 9.453 0 0 1 73.068 38.368 Q 72.8 37.282 72.708 36.007 A 19.263 19.263 0 0 1 72.66 34.62 Z M 177.54 44.4 L 172.14 44.4 L 172.14 13.2 L 177.36 13.2 L 177.36 19.98 Q 178.14 18 179.46 16.29 Q 180.78 14.58 182.76 13.53 A 8.89 8.89 0 0 1 185.568 12.616 A 11.676 11.676 0 0 1 187.38 12.48 Q 188.28 12.48 189.18 12.57 A 11.383 11.383 0 0 1 189.813 12.65 Q 190.305 12.728 190.68 12.84 L 189.06 18.42 A 5.858 5.858 0 0 0 187.773 18.053 Q 187.116 17.94 186.36 17.94 A 7.775 7.775 0 0 0 182.382 19.047 A 9.365 9.365 0 0 0 182.13 19.2 Q 180.133 20.452 178.847 23.065 A 13.756 13.756 0 0 0 178.83 23.1 A 11.592 11.592 0 0 0 177.948 25.686 Q 177.671 26.936 177.582 28.397 A 23.454 23.454 0 0 0 177.54 29.82 L 177.54 44.4 Z M 5.7 7.14 L 5.7 39.6 Q 6.96 39.78 8.34 39.84 A 64.359 64.359 0 0 0 10.477 39.896 A 72.774 72.774 0 0 0 11.22 39.9 Q 16.62 39.9 20.04 37.8 Q 23.46 35.7 25.08 31.95 A 19.375 19.375 0 0 0 26.433 27.106 A 25.501 25.501 0 0 0 26.7 23.34 Q 26.7 19.02 25.08 15.24 Q 23.46 11.46 20.1 9.15 Q 16.954 6.987 12.178 6.849 A 22.804 22.804 0 0 0 11.52 6.84 Q 9.78 6.84 8.34 6.93 Q 6.9 7.02 5.7 7.14 Z M 99.12 44.4 L 93.72 44.4 L 93.72 13.2 L 99.12 13.2 L 99.12 44.4 Z M 258.06 44.4 L 252.66 44.4 L 252.66 13.2 L 258.06 13.2 L 258.06 44.4 Z M 43.68 26.64 L 60.78 26.64 A 14.613 14.613 0 0 0 60.537 23.889 Q 60.24 22.338 59.577 21.124 A 7.453 7.453 0 0 0 58.5 19.62 A 7.493 7.493 0 0 0 54.324 17.355 A 11.037 11.037 0 0 0 52.2 17.16 A 8.148 8.148 0 0 0 49.133 17.721 A 7.514 7.514 0 0 0 46.44 19.59 Q 44.542 21.613 43.892 25.152 A 19.213 19.213 0 0 0 43.68 26.64 Z M 142.86 26.64 L 159.96 26.64 A 14.613 14.613 0 0 0 159.717 23.889 Q 159.42 22.338 158.757 21.124 A 7.453 7.453 0 0 0 157.68 19.62 A 7.493 7.493 0 0 0 153.504 17.355 A 11.037 11.037 0 0 0 151.38 17.16 A 8.148 8.148 0 0 0 148.313 17.721 A 7.514 7.514 0 0 0 145.62 19.59 Q 143.722 21.613 143.072 25.152 A 19.213 19.213 0 0 0 142.86 26.64 Z M 299.1 26.64 L 316.2 26.64 A 14.613 14.613 0 0 0 315.957 23.889 Q 315.66 22.338 314.997 21.124 A 7.453 7.453 0 0 0 313.92 19.62 A 7.493 7.493 0 0 0 309.744 17.355 A 11.037 11.037 0 0 0 307.62 17.16 A 8.148 8.148 0 0 0 304.553 17.721 A 7.514 7.514 0 0 0 301.86 19.59 Q 299.962 21.613 299.312 25.152 A 19.213 19.213 0 0 0 299.1 26.64 Z M 93.802 6.773 A 3.584 3.584 0 0 0 96.42 7.86 A 4.905 4.905 0 0 0 97.318 7.781 A 3.388 3.388 0 0 0 99.18 6.81 Q 100.2 5.76 100.2 4.08 A 4.359 4.359 0 0 0 100.2 4.031 A 3.636 3.636 0 0 0 99.09 1.41 A 4.438 4.438 0 0 0 99.055 1.376 A 3.635 3.635 0 0 0 96.42 0.3 Q 94.68 0.3 93.66 1.32 Q 92.64 2.34 92.64 4.08 A 3.595 3.595 0 0 0 92.935 5.531 A 3.986 3.986 0 0 0 93.75 6.72 A 4.48 4.48 0 0 0 93.802 6.773 Z M 252.742 6.773 A 3.584 3.584 0 0 0 255.36 7.86 A 4.905 4.905 0 0 0 256.258 7.781 A 3.388 3.388 0 0 0 258.12 6.81 Q 259.14 5.76 259.14 4.08 A 4.359 4.359 0 0 0 259.14 4.031 A 3.636 3.636 0 0 0 258.03 1.41 A 4.438 4.438 0 0 0 257.995 1.376 A 3.635 3.635 0 0 0 255.36 0.3 Q 253.62 0.3 252.6 1.32 Q 251.58 2.34 251.58 4.08 A 3.595 3.595 0 0 0 251.875 5.531 A 3.986 3.986 0 0 0 252.69 6.72 A 4.48 4.48 0 0 0 252.742 6.773 Z"
            vector-effect="non-scaling-stroke" />
    </g>
</svg>